<?xml version="1.0" standalone="no"?>
<!DOCTYPE svg PUBLIC "-//W3C//DTD SVG 20010904//EN"
 "http://www.w3.org/TR/2001/REC-SVG-20010904/DTD/svg10.dtd">
<svg version="1.0" xmlns="http://www.w3.org/2000/svg"
 width="900.000000pt" height="501.000000pt" viewBox="0 0 900.000000 501.000000"
 preserveAspectRatio="xMidYMid meet">
<metadata>
Created by potrace 1.10, written by Peter Selinger 2001-2011
</metadata>
<g transform="translate(0.000000,501.000000) scale(0.100000,-0.100000)"
fill="#000000" stroke="none">
<path d="M7427 4669 c-26 -5 -73 -21 -104 -34 -30 -14 -62 -25 -69 -25 -7 0
-28 -6 -46 -14 -18 -7 -71 -28 -118 -46 -47 -19 -121 -50 -165 -70 -44 -21
-109 -50 -145 -66 -95 -41 -283 -138 -522 -268 -319 -174 -381 -206 -397 -206
-22 0 -31 19 -31 62 0 36 -50 88 -86 88 -44 0 -129 -28 -186 -61 -134 -79
-207 -127 -278 -181 -75 -57 -113 -71 -123 -45 -3 8 2 43 10 78 23 97 13 410
-16 500 -75 237 -266 268 -651 106 -210 -88 -457 -240 -586 -360 -37 -34 -64
-32 -81 4 -19 39 -64 55 -113 40 -30 -9 -51 -26 -85 -71 -25 -32 -45 -61 -45
-65 0 -4 -15 -30 -33 -58 -64 -99 -179 -315 -221 -415 -15 -35 -43 -98 -63
-140 -36 -78 -47 -106 -132 -353 -27 -80 -63 -160 -86 -195 -38 -58 -302 -414
-314 -424 -4 -3 -22 -25 -42 -50 -101 -130 -151 -189 -164 -194 -32 -12 -44 5
-49 67 -3 34 -12 150 -21 257 -19 230 -69 668 -91 795 -14 84 -22 123 -60 310
-46 222 -101 372 -173 468 -72 97 -176 125 -229 60 -52 -64 -136 -286 -172
-455 -31 -149 -39 -171 -77 -206 l-36 -34 6 -239 c4 -132 2 -297 -3 -367 -5
-70 -17 -243 -25 -386 -9 -142 -21 -268 -27 -280 -6 -11 -34 -48 -63 -81 -79
-92 -110 -135 -138 -192 -87 -171 -131 -390 -108 -531 14 -87 34 -124 91 -175
53 -49 95 -69 159 -78 29 -4 59 -13 65 -19 7 -7 13 -140 17 -423 3 -227 9
-427 13 -444 13 -57 94 -96 124 -60 6 8 11 184 14 497 2 298 7 491 13 501 6 9
60 58 120 110 61 51 188 173 284 271 194 199 208 207 234 136 8 -24 18 -61 21
-84 11 -75 56 -218 94 -293 52 -106 110 -138 151 -85 26 33 26 77 1 169 -29
106 -38 133 -85 230 -51 107 -79 226 -64 278 5 20 48 80 102 144 123 145 202
243 267 332 49 66 55 72 67 56 7 -10 10 -30 7 -44 -44 -204 -52 -251 -70 -421
-38 -353 -40 -563 -7 -699 70 -288 307 -357 584 -170 62 41 484 456 595 583
38 44 76 87 84 96 47 52 156 194 250 325 69 96 270 417 270 430 0 3 11 22 23
43 43 67 94 170 122 241 38 101 59 126 160 197 50 35 128 96 174 136 46 40
107 91 135 114 28 22 98 86 156 141 101 97 246 207 381 289 35 21 109 68 164
104 189 124 545 318 805 438 197 91 308 140 330 147 14 4 30 11 35 15 6 4 75
29 154 55 130 43 153 48 243 49 88 1 101 -1 114 -18 40 -56 -15 -238 -126
-412 -33 -53 -38 -82 -15 -90 55 -21 191 121 247 258 27 68 30 235 5 284 -23
45 -100 111 -143 123 -46 13 -139 13 -207 0z m-2428 -226 c12 -11 30 -47 41
-88 26 -90 28 -351 4 -483 -33 -183 -41 -205 -97 -259 -29 -27 -72 -65 -97
-84 -25 -18 -122 -99 -215 -179 -94 -80 -191 -161 -215 -181 -25 -20 -134
-123 -242 -228 -202 -197 -222 -224 -211 -283 6 -32 -14 -47 -117 -90 -112
-46 -150 -56 -241 -67 -103 -12 -166 0 -200 38 -47 51 -61 182 -37 333 9 63
81 302 108 363 34 79 157 322 176 351 13 19 24 37 24 40 0 29 248 329 321 388
13 11 49 40 79 66 139 119 425 281 580 329 41 13 93 29 115 36 62 21 198 19
224 -2z m-2952 -397 c78 -98 177 -499 228 -916 8 -63 21 -163 30 -222 8 -59
20 -185 25 -280 6 -95 15 -220 20 -278 5 -58 11 -150 12 -205 3 -82 0 -100
-12 -102 -8 -2 -25 11 -37 29 -56 83 -197 209 -276 247 -55 27 -128 36 -185
23 -33 -8 -46 -7 -56 4 -11 10 -15 88 -21 351 -8 346 -1 509 30 673 7 41 21
122 30 180 16 98 34 181 72 325 16 63 56 159 74 182 17 20 46 16 66 -11z
m3581 -201 c2 -14 -22 -46 -75 -101 -80 -82 -135 -123 -258 -189 -38 -21 -95
-54 -125 -74 -69 -45 -84 -51 -100 -41 -14 9 -8 45 13 70 22 28 282 221 336
251 20 10 68 40 106 64 74 48 98 53 103 20z m-990 -1062 c3 -20 -17 -56 -144
-260 -35 -56 -64 -104 -64 -107 0 -25 -302 -435 -409 -556 -128 -144 -620
-622 -663 -645 -54 -28 -155 -55 -204 -55 -55 0 -93 21 -116 63 -21 39 -38
179 -38 312 0 122 37 495 59 590 6 22 13 65 16 95 4 30 13 75 20 100 7 25 25
104 40 175 39 190 39 190 59 193 23 5 36 -14 36 -51 0 -78 109 -216 203 -258
45 -20 68 -24 162 -23 76 0 130 6 175 19 146 42 420 179 698 350 75 46 144 83
152 82 8 -1 16 -12 18 -24z m-2635 -564 c86 -44 284 -272 271 -313 -9 -29
-456 -476 -477 -476 -9 0 -20 8 -25 18 -11 22 6 689 19 720 10 27 100 72 142
72 15 0 47 -10 70 -21z m-416 -616 c2 -311 2 -313 -20 -328 -27 -19 -58 -19
-101 -1 -99 41 -84 275 34 556 28 66 48 92 69 88 14 -3 16 -42 18 -315z"/>
<path d="M6424 3178 c-95 -67 -241 -400 -284 -648 -7 -36 -16 -85 -20 -110 -5
-25 -9 -66 -9 -92 -1 -43 -8 -58 -69 -140 -80 -108 -182 -277 -182 -300 0 -24
28 -48 56 -48 27 0 24 -3 158 148 62 71 105 112 118 112 10 0 35 -16 55 -35
53 -52 106 -68 205 -63 101 5 171 32 332 126 121 71 228 168 263 237 36 70 48
147 34 212 -22 100 -71 159 -159 189 -52 19 -53 18 -134 -3 -54 -14 -86 -18
-94 -12 -7 5 -14 49 -16 102 -4 76 -10 104 -35 159 -37 78 -84 141 -129 168
-40 25 -52 25 -90 -2z m120 -184 c21 -45 34 -274 18 -316 -7 -16 -39 -45 -81
-73 -39 -26 -93 -67 -121 -92 -64 -57 -85 -54 -75 13 4 26 13 61 20 78 7 17
23 65 35 106 54 180 129 320 173 320 7 0 21 -16 31 -36z m401 -398 c36 -54 -6
-166 -88 -235 -42 -35 -217 -140 -300 -179 -56 -27 -79 -32 -141 -32 -87 0
-126 22 -126 70 0 23 17 44 88 110 73 68 221 180 237 180 3 0 22 11 43 24 74
46 176 85 224 86 39 0 50 -4 63 -24z"/>
</g>
</svg>
